<svg width="512" height="512" xmlns="http://www.w3.org/2000/svg">

 <g>
  <title>background</title>
  <rect fill="none" id="canvas_background" height="402" width="582" y="-1" x="-1"/>
 </g>
 <g>
  <title>Layer 1</title>
  <path fill="#00bf5f" id="svg_3" d="m413.696,399.752l0,-230.002l-229.376,0l0,-14.375c0,-23.779 19.295,-43.124 43.004,-43.124l43.008,0l0,-86.251l-43.008,0c-71.133,0 -129.018,58.044 -129.018,129.375l0,14.375l-57.344,0l0,86.25l57.342,0l0,143.752l-57.342,0l0,86.248l200.705,0l0,-86.248l-57.347,0l0,-143.752l144.157,0l0,143.752l-58.145,0l0,86.248l200.705,0l0,-86.248l-57.341,0z"/>
  <path fill="#00bf5f" id="svg_4" d="m370.685,112.25c23.751,0 43.012,-19.305 43.012,-43.125c0,-23.821 -19.261,-43.125 -43.012,-43.124c-23.749,0 -43.005,19.303 -43.005,43.124c0,23.82 19.256,43.125 43.005,43.125z"/>
 </g>
</svg>